<?xml version="1.0" standalone="no"?>
<!DOCTYPE svg PUBLIC "-//W3C//DTD SVG 20010904//EN"
 "http://www.w3.org/TR/2001/REC-SVG-20010904/DTD/svg10.dtd">
<svg version="1.0" xmlns="http://www.w3.org/2000/svg"
 width="420.000000pt" height="420.000000pt" viewBox="0 0 420.000000 420.000000"
 preserveAspectRatio="xMidYMid meet">
<metadata>
Created by potrace 1.14, written by Peter Selinger 2001-2017
</metadata>
<g transform="translate(0.000000,420.000000) scale(0.100000,-0.100000)"
fill="#000000" stroke="none">
<path d="M1921 3842 c-65 -24 -97 -47 -138 -101 -65 -84 -79 -205 -35 -303 10
-24 44 -73 75 -109 58 -68 96 -137 97 -176 0 -13 3 -23 8 -23 4 0 8 -10 9 -22
5 -74 7 -88 12 -88 4 0 7 -12 6 -27 0 -30 21 -83 34 -83 5 0 20 -11 35 -25 18
-16 39 -25 60 -25 28 0 40 8 72 48 21 26 42 50 47 53 5 4 5 9 -1 12 -5 4 -8
22 -6 42 1 19 -2 35 -7 35 -6 0 -7 5 -3 12 4 7 8 55 8 108 l1 95 55 104 c49
93 55 111 58 176 4 62 0 82 -23 133 -30 68 -93 134 -148 157 -63 26 -154 29
-216 7z"/>
<path d="M2025 2789 c-22 -5 -49 -11 -60 -12 -11 -2 -53 -16 -93 -31 -184 -71
-338 -177 -451 -312 -25 -30 -132 -216 -131 -229 0 -3 -6 -21 -15 -41 -11 -27
-49 -144 -60 -184 -1 -3 -7 -25 -14 -50 -7 -25 -15 -53 -17 -63 -2 -10 -5 -26
-8 -35 -10 -34 -23 -173 -25 -284 -1 -27 -5 -48 -9 -48 -4 0 -16 41 -26 92
-20 108 -38 145 -73 159 -32 12 -88 -4 -99 -29 -14 -33 -13 -48 7 -162 11 -63
24 -142 29 -175 6 -33 12 -72 15 -87 5 -31 -10 -38 -20 -9 -12 38 -54 70 -89
66 -65 -6 -90 -34 -105 -115 -1 -3 -5 1 -9 8 -23 35 -109 14 -139 -35 -14 -22
-26 -28 -54 -29 -25 -1 -46 -10 -65 -28 -25 -22 -29 -35 -31 -81 -2 -77 12
-126 43 -153 18 -16 35 -52 58 -125 41 -129 67 -180 121 -232 78 -78 216 -99
355 -56 35 11 66 19 67 17 2 -2 10 -43 18 -92 23 -142 64 -244 115 -287 39
-33 165 -39 145 -7 -8 12 -8 12 87 14 42 0 81 6 87 11 9 10 19 80 21 155 1 32
3 30 24 -30 28 -81 49 -118 73 -134 20 -13 187 -21 180 -9 -3 5 -1 17 2 27 6
16 10 14 24 -16 9 -19 22 -35 29 -35 7 -1 38 -6 68 -13 30 -6 66 -13 80 -15
39 -6 100 -16 124 -21 57 -11 116 -15 117 -8 0 5 2 16 4 24 1 8 6 33 9 54 10
63 17 55 14 -17 -1 -36 0 -69 4 -72 3 -3 18 -8 34 -11 16 -3 36 -7 44 -9 8 -2
29 -7 45 -10 17 -2 41 -8 55 -12 14 -3 124 -8 245 -10 l220 -4 20 33 c10 18
18 34 17 36 -1 1 -2 3 -1 5 1 3 6 25 14 57 21 89 34 286 40 620 2 102 6 208 9
235 3 28 8 77 11 110 3 33 8 72 10 86 3 15 7 57 10 95 3 38 8 80 10 94 2 14 7
61 11 105 3 44 8 94 10 110 12 104 12 290 -1 375 -44 295 -195 546 -425 704
-29 20 -58 36 -66 36 -8 0 -14 5 -14 12 0 6 -3 8 -7 5 -3 -4 -12 -2 -19 4 -21
17 -137 46 -175 44 -19 -2 -50 -10 -67 -19 -40 -21 -44 -20 -78 9 -15 13 -30
22 -33 20 -2 -3 -10 0 -17 6 -18 15 -178 20 -229 8z m-878 -1321 c-3 -8 -6 -5
-6 6 -1 11 2 17 5 13 3 -3 4 -12 1 -19z"/>
</g>
</svg>
